<?xml version="1.0" encoding="utf-8"?>
<!-- Generator: Adobe Illustrator 18.1.1, SVG Export Plug-In . SVG Version: 6.00 Build 0)  -->
<svg version="1.1" id="Layer_1" xmlns="http://www.w3.org/2000/svg" xmlns:xlink="http://www.w3.org/1999/xlink" x="0px" y="0px"
	 viewBox="0 0 1024 768" enable-background="new 0 0 1024 768" xml:space="preserve">
<g>
	<g>
		<rect x="275.6" y="471" fill="none" width="65" height="217.7"/>
		<text transform="matrix(1 0 0 1 288.6776 480.111)"><tspan x="0" y="0" fill="#FFFFFF" font-family="'Roboto-Thin'" font-size="12">Acquire</tspan><tspan x="4.7" y="28.8" fill="#FFFFFF" font-family="'Roboto-Thin'" font-size="12">Parse</tspan><tspan x="6.7" y="57.6" fill="#FFFFFF" font-family="'Roboto-Thin'" font-size="12">Filter</tspan><tspan x="6.8" y="86.4" fill="#FFFFFF" font-family="'Roboto-Thin'" font-size="12">Mine</tspan><tspan x="-6.9" y="115.2" fill="#FFFFFF" font-family="'Roboto-Thin'" font-size="12">Represent</tspan><tspan x="3.1" y="144" fill="#FFFFFF" font-family="'Roboto-Thin'" font-size="12">Refine</tspan><tspan x="-0.3" y="172.8" fill="#FFFFFF" font-family="'Roboto-Thin'" font-size="12">Interact</tspan></text>
	</g>
	<g>
		<rect x="756.5" y="251.7" fill="none" width="65" height="217.7"/>
		<text transform="matrix(1 0 0 1 769.5601 260.8586)"><tspan x="0" y="0" fill="#FFFFFF" font-family="'Roboto-Thin'" font-size="12">Acquire</tspan><tspan x="4.7" y="28.8" fill="#FFFFFF" font-family="'Roboto-Thin'" font-size="12">Parse</tspan><tspan x="6.7" y="57.6" fill="#FFFFFF" font-family="'Roboto-Thin'" font-size="12">Filter</tspan><tspan x="6.8" y="86.4" fill="#FFFFFF" font-family="'Roboto-Thin'" font-size="12">Mine</tspan><tspan x="-6.9" y="115.2" fill="#FFFFFF" font-family="'Roboto-Thin'" font-size="12">Represent</tspan><tspan x="3.1" y="144" fill="#FFFFFF" font-family="'Roboto-Thin'" font-size="12">Refine</tspan><tspan x="-0.3" y="172.8" fill="#FFFFFF" font-family="'Roboto-Thin'" font-size="12">Interact</tspan></text>
	</g>
	<rect x="79.2" y="79.3" fill="none" width="62.5" height="30"/>
	<text transform="matrix(1 0 0 1 79.1665 90.001)"><tspan x="0" y="0" fill="#FFFFFF" font-family="'Roboto-Bold'" font-size="14">Topic </tspan><tspan x="0" y="16.8" fill="#FFFFFF" font-family="'Roboto-Bold'" font-size="14">definition</tspan></text>
	<rect x="271.7" y="79.3" fill="none" width="65.8" height="30"/>
	<text transform="matrix(1 0 0 1 271.6665 90.001)"><tspan x="0" y="0" fill="#FFFFFF" font-family="'Roboto-Bold'" font-size="14">Parameter</tspan><tspan x="0" y="16.8" fill="#FFFFFF" font-family="'Roboto-Bold'" font-size="14">definition</tspan></text>
	<rect x="467.5" y="79.3" fill="none" width="60.8" height="30"/>
	<text transform="matrix(1 0 0 1 467.4998 90.001)"><tspan x="0" y="0" fill="#FFFFFF" font-family="'Roboto-Bold'" font-size="14">Queries </tspan><tspan x="0" y="16.8" fill="#FFFFFF" font-family="'Roboto-Bold'" font-size="14">definition</tspan></text>
	<rect x="658.3" y="85.2" fill="none" width="100.3" height="18.3"/>
	<text transform="matrix(1 0 0 1 658.3331 95.8343)" fill="#FFFFFF" font-family="'Roboto-Bold'" font-size="14">Categorization </text>
	<rect x="880" y="88.5" fill="none" width="85.4" height="11.7"/>
	<text transform="matrix(1 0 0 1 879.9999 99.1681)" fill="#FFFFFF" font-family="'Roboto-Bold'" font-size="14">Visualization</text>
	<line fill="#FFFFFF" x1="110.4" y1="112.7" x2="110.4" y2="155.2"/>
	<line fill="none" stroke="#FFFFFF" stroke-width="0.5" stroke-miterlimit="10" x1="304.6" y1="194.7" x2="304.6" y2="237.2"/>
	<line fill="none" stroke="#FFFFFF" stroke-width="0.5" stroke-miterlimit="10" x1="222.3" y1="393.3" x2="222.3" y2="411.3"/>
	<path fill="none" stroke="#FFFFFF" stroke-width="0.5" stroke-miterlimit="10" d="M109.4,200.2c0,0,0.5,5.1-5.1,5.1
		c-5.6,0-34.8,0-34.8,0s-5.3,0.2-5.3,5.3"/>
	<path fill="none" stroke="#FFFFFF" stroke-width="0.5" stroke-miterlimit="10" d="M64.4,220.5c0,0-0.5,5.1,5.1,5.1
		c5.6,0,34.5-0.2,34.5-0.2s5.3,0.2,5.3,5.3"/>
	<path fill="none" stroke="#FFFFFF" stroke-width="0.5" stroke-miterlimit="10" d="M113.6,200.2c0,0-0.5,5.1,5.1,5.1
		c5.6,0,34.8,0,34.8,0s5.3,0.2,5.3,5.3"/>
	<path fill="none" stroke="#FFFFFF" stroke-width="0.5" stroke-miterlimit="10" d="M110.4,363.5c0,0-0.5,5.1,5.1,5.1"/>
	<path fill="none" stroke="#FFFFFF" stroke-width="0.5" stroke-miterlimit="10" d="M158.5,220.5c0,0,0.5,5.1-5.1,5.1
		s-34.5-0.2-34.5-0.2s-5.3,0.2-5.3,5.3"/>
	<line fill="none" stroke="#FFFFFF" stroke-width="0.5" stroke-miterlimit="10" x1="304.6" y1="112.7" x2="304.6" y2="155.2"/>
	<line fill="none" stroke="#FFFFFF" stroke-width="0.5" stroke-miterlimit="10" x1="497.9" y1="112.7" x2="497.9" y2="155.2"/>
	<line fill="none" stroke="#FFFFFF" stroke-width="0.5" stroke-miterlimit="10" x1="497.9" y1="196.4" x2="497.9" y2="238.9"/>
	<g>
		<g>
			<line fill="none" stroke="#FFFFFF" stroke-width="0.5" stroke-miterlimit="10" x1="515" y1="208.9" x2="515" y2="210.4"/>
			
				<line fill="none" stroke="#FFFFFF" stroke-width="0.5" stroke-miterlimit="10" stroke-dasharray="2.8316,2.8316" x1="515" y1="213.2" x2="515" y2="257.1"/>
			<line fill="none" stroke="#FFFFFF" stroke-width="0.5" stroke-miterlimit="10" x1="515" y1="258.5" x2="515" y2="260"/>
		</g>
	</g>
	<line fill="none" stroke="#FFFFFF" stroke-width="0.5" stroke-miterlimit="10" x1="704.2" y1="112.7" x2="704.2" y2="155.2"/>
	<line fill="none" stroke="#FFFFFF" stroke-width="0.5" stroke-miterlimit="10" x1="922.7" y1="112.7" x2="922.7" y2="155.2"/>
	<rect x="51.6" y="162.7" fill="none" width="117.7" height="45"/>
	<text transform="matrix(1 0 0 1 55.8041 173.3345)"><tspan x="0" y="0" fill="#FFFFFF" font-family="'Roboto-Regular'" font-size="14">Relation between </tspan><tspan x="-4.1" y="14" fill="#FFFFFF" font-family="'Roboto-Regular'" font-size="14">danger and reason</tspan></text>
	<rect x="261" y="162.7" fill="none" width="87.1" height="31.7"/>
	<text transform="matrix(1 0 0 1 261.0416 173.3345)"><tspan x="0" y="0" fill="#FFFFFF" font-family="'Roboto-Regular'" font-size="14">Google image </tspan><tspan x="0" y="13" fill="#FFFFFF" font-family="'Roboto-Regular'" font-size="14">search</tspan></text>
	<rect x="461" y="242.5" fill="none" width="73.8" height="31.7"/>
	<text transform="matrix(1 0 0 1 461.0417 253.1847)"><tspan x="0" y="0" fill="#FFFFFF" font-family="'Roboto-Regular'" font-size="14">Time based </tspan><tspan x="0" y="13" fill="#FFFFFF" font-family="'Roboto-Regular'" font-size="14">search</tspan></text>
	<rect x="442.7" y="162.7" fill="none" width="110.4" height="38.3"/>
	<text transform="matrix(1 0 0 1 442.7084 173.3345)"><tspan x="0" y="0" fill="#FFFFFF" font-family="'Roboto-Regular'" font-size="14">Relation between </tspan><tspan x="0" y="13" fill="#FFFFFF" font-family="'Roboto-Regular'" font-size="14">before and after</tspan></text>
	<rect x="662.1" y="162.7" fill="none" width="84.2" height="31.7"/>
	<text transform="matrix(1 0 0 1 662.0828 173.3345)"><tspan x="0" y="0" fill="#FFFFFF" font-family="'Roboto-Regular'" font-size="14">Architectural </tspan><tspan x="0" y="13" fill="#FFFFFF" font-family="'Roboto-Regular'" font-size="14">symbol</tspan></text>
	<rect x="877" y="162.7" fill="none" width="91.5" height="38.3"/>
	<text transform="matrix(1 0 0 1 876.9792 173.3345)"><tspan x="0" y="0" fill="#FFFFFF" font-family="'Roboto-Regular'" font-size="14">Emotional and </tspan><tspan x="0" y="13" fill="#FFFFFF" font-family="'Roboto-Regular'" font-size="14">Explanatory</tspan></text>
	<rect x="56" y="209.9" fill="none" width="39" height="12"/>
	<text transform="matrix(1 0 0 1 56 219.0866)" fill="#FFFFFF" font-family="'Roboto-Thin'" font-size="12">war</text>
	<rect x="56" y="282.8" fill="none" width="107" height="12"/>
	<text transform="matrix(1 0 0 1 70.4297 291.8951)" fill="#FFFFFF" font-family="'Roboto-Thin'" font-size="12">Political reason</text>
	<rect x="284" y="304.7" fill="none" width="107" height="12"/>
	<text transform="matrix(1 0 0 1 298.2363 313.8574)" fill="#FFFFFF" font-family="'Roboto-Thin'" font-size="12">documentation</text>
	<rect x="98.2" y="235.7" fill="none" width="31" height="25.8"/>
	<text transform="matrix(1 0 0 1 98.1671 244.8411)"><tspan x="0" y="0" fill="#FFFFFF" font-family="'Roboto-Thin'" font-size="12">both</tspan><tspan x="0" y="10" fill="#FFFFFF" font-family="'Roboto-Thin'" font-size="12">have</tspan></text>
	<rect x="156.2" y="256.5" fill="none" width="31" height="25.8"/>
	<text transform="matrix(1 0 0 1 156.2291 261.832)" fill="#FFFFFF" font-family="'Roboto-Thin'" font-size="7">effect</text>
	<rect x="524.9" y="364.6" fill="none" width="31" height="25.8"/>
	<text transform="matrix(1 0 0 1 524.8959 369.9323)"><tspan x="0" y="0" fill="#FFFFFF" font-family="'Roboto-Thin'" font-size="7">Siryan </tspan><tspan x="0" y="10" fill="#FFFFFF" font-family="'Roboto-Thin'" font-size="7">civil war</tspan></text>
	<rect x="534.8" y="267.9" fill="none" width="7.4" height="7.3"/>
	<text transform="matrix(1 0 0 1 534.8206 273.2556)" fill="#FFFFFF" font-family="'Roboto-Thin'" font-size="7">to</text>
	<rect x="531.8" y="422.8" fill="none" width="31" height="25.8"/>
	<text transform="matrix(1 0 0 1 531.7917 428.1035)"><tspan x="0" y="0" fill="#FFFFFF" font-family="'Roboto-Thin'" font-size="7">ISIL </tspan><tspan x="0" y="10" fill="#FFFFFF" font-family="'Roboto-Thin'" font-size="7">capture </tspan><tspan x="0" y="20" fill="#FFFFFF" font-family="'Roboto-Thin'" font-size="7">of the site</tspan></text>
	<rect x="540.7" y="488.3" fill="none" width="55.7" height="12.9"/>
	<text transform="matrix(1 0 0 1 540.6672 493.6496)" fill="#FFFFFF" font-family="'Roboto-Thin'" font-size="7">Liberation</text>
	<rect x="284.9" y="211.7" fill="none" width="34.7" height="10.8"/>
	<text transform="matrix(1 0 0 1 284.9166 217.0703)" fill="#FFFFFF" font-family="'Roboto-Thin'" font-size="7">is the</text>
	<rect x="340.5" y="339.1" fill="none" width="34.7" height="10.8"/>
	<text transform="matrix(1 0 0 1 340.5 344.4307)" fill="#FFFFFF" font-family="'Roboto-Thin'" font-size="7">about</text>
	<rect x="208.6" y="383.8" fill="none" width="43.8" height="7.5"/>
	<text transform="matrix(1 0 0 1 208.5625 389.1649)" fill="#FFFFFF" font-family="'Roboto-Thin'" font-size="7">case study</text>
	<rect x="42.2" y="258.4" fill="none" width="31" height="25.8"/>
	<text transform="matrix(1 0 0 1 42.2291 263.6823)" fill="#FFFFFF" font-family="'Roboto-Thin'" font-size="7">effect</text>
	<g>
		<rect x="39.2" y="307.2" fill="none" width="51.2" height="25.8"/>
		<text transform="matrix(1 0 0 1 40.1613 317.8684)"><tspan x="0" y="0" fill="#FFFFFF" font-family="'Roboto-Regular'" font-size="14">Cultural </tspan><tspan x="9.4" y="14" fill="#FFFFFF" font-family="'Roboto-Regular'" font-size="14">sites</tspan></text>
	</g>
	<g>
		<rect x="129.4" y="307.2" fill="none" width="48.3" height="25.8"/>
		<text transform="matrix(1 0 0 1 130.3351 317.8553)"><tspan x="0" y="0" fill="#FFFFFF" font-family="'Roboto-Regular'" font-size="14">Natural </tspan><tspan x="8" y="14" fill="#FFFFFF" font-family="'Roboto-Regular'" font-size="14">sites</tspan></text>
	</g>
	<g>
		<rect x="206.8" y="356.4" fill="none" width="48.3" height="25.8"/>
		<text transform="matrix(1 0 0 1 206.7583 367.0208)"><tspan x="0" y="0" fill="#FFFFFF" font-family="'Roboto-Regular'" font-size="14">Site</tspan><tspan x="0" y="14" fill="#FFFFFF" font-family="'Roboto-Regular'" font-size="14">focus</tspan></text>
	</g>
	<g>
		<rect x="134.6" y="209.9" fill="none" width="48.5" height="12"/>
		<text transform="matrix(1 0 0 1 134.5529 219.0866)" fill="#FFFFFF" font-family="'Roboto-Thin'" font-size="12">economy</text>
	</g>
	<g>
		<rect x="261" y="239.9" fill="none" width="67.8" height="79.5"/>
		<text transform="matrix(1 0 0 1 261.0414 249.0866)"><tspan x="0" y="0" fill="#FFFFFF" font-family="'Roboto-Thin'" font-size="12">first tool to </tspan><tspan x="0" y="14.4" fill="#FFFFFF" font-family="'Roboto-Thin'" font-size="12">access fast </tspan><tspan x="0" y="28.8" fill="#FFFFFF" font-family="'Roboto-Thin'" font-size="12">information</tspan></text>
	</g>
	<line fill="none" stroke="#FFFFFF" stroke-width="0.5" stroke-miterlimit="10" x1="64.2" y1="225.6" x2="64.2" y2="305.2"/>
	<line fill="none" stroke="#FFFFFF" stroke-width="0.5" stroke-miterlimit="10" x1="154" y1="225.6" x2="154" y2="305.2"/>
	<line fill="none" stroke="#FFFFFF" stroke-width="0.5" stroke-miterlimit="10" x1="110.4" y1="257.2" x2="110.4" y2="276.2"/>
	<line fill="none" stroke="#FFFFFF" stroke-width="0.5" stroke-miterlimit="10" x1="498.3" y1="326.1" x2="498.3" y2="345.1"/>
	<line fill="none" stroke="#FFFFFF" stroke-width="0.5" stroke-miterlimit="10" x1="922.7" y1="198.2" x2="922.7" y2="217.2"/>
	<line fill="none" stroke="#FFFFFF" stroke-width="0.5" stroke-miterlimit="10" x1="922.7" y1="251.6" x2="922.7" y2="270.6"/>
	<line fill="none" stroke="#FFFFFF" stroke-width="0.5" stroke-miterlimit="10" x1="922.7" y1="305.1" x2="922.7" y2="324.1"/>
	<line fill="none" stroke="#FFFFFF" stroke-width="0.5" stroke-miterlimit="10" x1="922.7" y1="358.6" x2="922.7" y2="377.6"/>
	<line fill="#FFFFFF" stroke="#FFFFFF" stroke-width="0.5" stroke-miterlimit="10" x1="789" y1="265.7" x2="789" y2="275.3"/>
	<line fill="#FFFFFF" stroke="#FFFFFF" stroke-width="0.5" stroke-miterlimit="10" x1="789" y1="295.3" x2="789" y2="304.9"/>
	<line fill="#FFFFFF" stroke="#FFFFFF" stroke-width="0.5" stroke-miterlimit="10" x1="789" y1="324.9" x2="789" y2="334.5"/>
	<line fill="#FFFFFF" stroke="#FFFFFF" stroke-width="0.5" stroke-miterlimit="10" x1="789" y1="354.5" x2="789" y2="364.1"/>
	<line fill="#FFFFFF" stroke="#FFFFFF" stroke-width="0.5" stroke-miterlimit="10" x1="789" y1="384.1" x2="789" y2="393.7"/>
	<line fill="#FFFFFF" stroke="#FFFFFF" stroke-width="0.5" stroke-miterlimit="10" x1="789" y1="413.7" x2="789" y2="423.3"/>
	<line fill="none" stroke="#FFFFFF" stroke-width="0.5" stroke-miterlimit="10" x1="110.4" y1="344.5" x2="110.4" y2="363.5"/>
	<line fill="none" stroke="#FFFFFF" stroke-width="0.5" stroke-miterlimit="10" x1="163" y1="344.5" x2="55.2" y2="344.5"/>
	<polyline fill="none" stroke="#FFFFFF" stroke-width="0.5" stroke-miterlimit="10" points="115.3,368.6 202.5,368.6 201.1,367.2 	
		"/>
	<line fill="none" stroke="#FFFFFF" stroke-width="0.5" stroke-miterlimit="10" x1="201.2" y1="369.9" x2="202.5" y2="368.6"/>
	<path fill="none" stroke="#FFFFFF" stroke-width="0.5" stroke-miterlimit="10" d="M708.4,213.5c0,0-0.5,5.1,5.1,5.1"/>
	<line fill="none" stroke="#FFFFFF" stroke-width="0.5" stroke-miterlimit="10" x1="708.4" y1="194.5" x2="708.4" y2="213.5"/>
	<polyline fill="none" stroke="#FFFFFF" stroke-width="0.5" stroke-miterlimit="10" points="713.7,218.6 748.5,218.6 747.1,217.2 	
		"/>
	<line fill="none" stroke="#FFFFFF" stroke-width="0.5" stroke-miterlimit="10" x1="747.2" y1="219.9" x2="748.5" y2="218.6"/>
	<polyline fill="none" stroke="#FFFFFF" stroke-width="0.5" stroke-miterlimit="10" points="384.3,310.6 445.5,310.6 444.1,309.2 	
		"/>
	<line fill="#FFFFFF" x1="444.2" y1="311.9" x2="445.5" y2="310.6"/>
	<path fill="none" stroke="#FFFFFF" stroke-width="0.5" stroke-miterlimit="10" d="M337.5,363.5c0,0,0.5,5.1-5.1,5.1"/>
	<line fill="none" stroke="#FFFFFF" stroke-miterlimit="10" x1="337.5" y1="344.5" x2="337.5" y2="363.5"/>
	<polyline fill="none" stroke="#FFFFFF" stroke-width="0.5" stroke-miterlimit="10" points="332.4,368.6 246.4,368.6 247.8,367.2 	
		"/>
	<line fill="none" stroke="#FFFFFF" stroke-width="0.5" stroke-miterlimit="10" x1="247.7" y1="369.9" x2="246.4" y2="368.6"/>
	<line fill="none" stroke="#FFFFFF" stroke-width="0.5" stroke-miterlimit="10" x1="337.5" y1="320.1" x2="337.5" y2="363.5"/>
	<path fill="none" stroke="#FFFFFF" stroke-width="0.5" stroke-miterlimit="10" d="M703.9,197.7c0,0,0.5,5.1-5.1,5.1"/>
	<path fill="none" stroke="#FFFFFF" stroke-miterlimit="10" d="M703.9,197.7"/>
	<path fill="#FFFFFF" d="M703.9,178.7"/>
	<line fill="none" stroke="#FFFFFF" stroke-width="0.5" stroke-miterlimit="10" x1="698.8" y1="202.7" x2="520.3" y2="202.7"/>
	<line fill="none" stroke="#FFFFFF" stroke-miterlimit="10" x1="703.9" y1="194.3" x2="703.9" y2="197.7"/>
	<line fill="none" stroke="#FFFFFF" stroke-width="0.5" stroke-miterlimit="10" x1="337.5" y1="180.3" x2="337.5" y2="301.3"/>
	<g>
		<rect x="451.2" y="297.8" fill="none" width="93.5" height="37.8"/>
		<text transform="matrix(1 0 0 1 451.1667 306.9758)"><tspan x="0" y="0" fill="#FFFFFF" font-family="'Roboto-Thin'" font-size="12">Historical event in </tspan><tspan x="0" y="14.4" fill="#FFFFFF" font-family="'Roboto-Thin'" font-size="12">the guest country</tspan></text>
	</g>
	<g>
		<rect x="561.8" y="260.9" fill="none" width="93.5" height="12.4"/>
		<text transform="matrix(1 0 0 1 561.8064 270.0346)" fill="#FFFFFF" font-family="'Roboto-Thin'" font-size="12">recognize change</text>
	</g>
	<g>
		<rect x="867" y="222.6" fill="none" width="117.7" height="31.7"/>
		<text transform="matrix(1 0 0 1 870.0613 231.7151)"><tspan x="0" y="0" fill="#FFFFFF" font-family="'Roboto-Thin'" font-size="12">delivering information </tspan><tspan x="20.8" y="14.4" fill="#FFFFFF" font-family="'Roboto-Thin'" font-size="12">about the site</tspan></text>
	</g>
	<g>
		<rect x="901.2" y="282.6" fill="none" width="43" height="12.4"/>
		<text transform="matrix(1 0 0 1 901.1873 291.7799)" fill="#FFFFFF" font-family="'Roboto-Thin'" font-size="12">timeline</text>
	</g>
	<g>
		<rect x="890.2" y="335.1" fill="none" width="65" height="12.4"/>
		<text transform="matrix(1 0 0 1 890.1873 344.1924)" fill="#FFFFFF" font-family="'Roboto-Thin'" font-size="12">image cloud</text>
	</g>
	<line fill="none" stroke="#FFFFFF" stroke-width="0.5" stroke-miterlimit="10" x1="308.1" y1="484.9" x2="308.1" y2="494.5"/>
	<line fill="none" stroke="#FFFFFF" stroke-width="0.5" stroke-miterlimit="10" x1="308.1" y1="514.5" x2="308.1" y2="524.1"/>
	<line fill="none" stroke="#FFFFFF" stroke-width="0.5" stroke-miterlimit="10" x1="308.1" y1="544.1" x2="308.1" y2="553.7"/>
	<line fill="none" stroke="#FFFFFF" stroke-width="0.5" stroke-miterlimit="10" x1="308.1" y1="573.7" x2="308.1" y2="583.4"/>
	<line fill="none" stroke="#FFFFFF" stroke-width="0.5" stroke-miterlimit="10" x1="308.1" y1="603.4" x2="308.1" y2="613"/>
	<line fill="none" stroke="#FFFFFF" stroke-width="0.5" stroke-miterlimit="10" x1="308.1" y1="633" x2="308.1" y2="642.6"/>
	<g>
		<rect x="883.1" y="387.5" fill="none" width="79.3" height="12.2"/>
		<text transform="matrix(1 0 0 1 883.0725 396.6034)" fill="#FFFFFF" font-family="'Roboto-Thin'" font-size="12">change display</text>
	</g>
	<g>
		<rect x="750.6" y="213.4" fill="none" width="89" height="12.2"/>
		<text transform="matrix(1 0 0 1 750.62 222.5465)" fill="#FFFFFF" font-family="'Roboto-Thin'" font-size="12">image scraping</text>
	</g>
	<g>
		<rect x="484.8" y="362.6" fill="none" width="27" height="11.5"/>
		<text transform="matrix(1 0 0 1 484.9995 371.7202)" fill="#FFFFFF" font-family="'Roboto-Thin'" font-size="12">2012</text>
	</g>
	<g>
		<rect x="484.8" y="424.1" fill="none" width="27" height="11.5"/>
		<text transform="matrix(1 0 0 1 484.9995 433.2658)" fill="#FFFFFF" font-family="'Roboto-Thin'" font-size="12">2015</text>
	</g>
	<g>
		<rect x="484.8" y="485.7" fill="none" width="27" height="11.5"/>
		<text transform="matrix(1 0 0 1 484.9995 494.8114)" fill="#FFFFFF" font-family="'Roboto-Thin'" font-size="12">2016</text>
	</g>
	<g>
		<rect x="184.9" y="414.5" fill="none" width="82.9" height="37.8"/>
		<text transform="matrix(1 0 0 1 184.8901 423.6424)"><tspan x="0" y="0" fill="#FFFFFF" font-family="'Roboto-Thin'" font-size="12">archeological </tspan><tspan x="0" y="14.4" fill="#FFFFFF" font-family="'Roboto-Thin'" font-size="12">site of Palmyra</tspan></text>
	</g>
	<g>
		<rect x="288.7" y="415.3" fill="none" width="46.7" height="37.8"/>
		<text transform="matrix(1 0 0 1 288.6553 424.4734)"><tspan x="0" y="0" fill="#FFFFFF" font-family="'Roboto-Thin'" font-size="12">UNESCO </tspan><tspan x="0" y="14.4" fill="#FFFFFF" font-family="'Roboto-Thin'" font-size="12">data set</tspan></text>
	</g>
	<g>
		<polyline fill="none" stroke="#FFFFFF" stroke-width="0.5" stroke-miterlimit="10" points="497.9,271.2 497.9,292.2 499.3,290.8 
					"/>
		<line fill="none" stroke="#FFFFFF" stroke-width="0.5" stroke-miterlimit="10" x1="496.6" y1="290.9" x2="497.9" y2="292.2"/>
	</g>
	<g>
		<polyline fill="none" stroke="#FFFFFF" stroke-width="0.5" stroke-miterlimit="10" points="497.9,389.2 497.9,410.2 499.3,408.8 
					"/>
		<line fill="none" stroke="#FFFFFF" stroke-width="0.5" stroke-miterlimit="10" x1="496.6" y1="408.9" x2="497.9" y2="410.2"/>
	</g>
	<g>
		<polyline fill="none" stroke="#FFFFFF" stroke-width="0.5" stroke-miterlimit="10" points="497.9,450.2 497.9,471.2 499.3,469.8 
					"/>
		<line fill="none" stroke="#FFFFFF" stroke-width="0.5" stroke-miterlimit="10" x1="496.6" y1="469.9" x2="497.9" y2="471.2"/>
	</g>
	<g>
		<polyline fill="none" stroke="#FFFFFF" stroke-width="0.5" stroke-miterlimit="10" points="311.9,368.6 311.9,408.2 313.3,406.8 
					"/>
		<line fill="none" stroke="#FFFFFF" stroke-width="0.5" stroke-miterlimit="10" x1="310.6" y1="406.9" x2="311.9" y2="408.2"/>
	</g>
	<line fill="none" stroke="#FFFFFF" stroke-width="0.5" stroke-miterlimit="10" x1="520.3" y1="363.5" x2="520.3" y2="497.2"/>
	<line fill="none" stroke="#FFFFFF" stroke-width="0.5" stroke-miterlimit="10" x1="529" y1="424.1" x2="529" y2="497.2"/>
	<line fill="none" stroke="#FFFFFF" stroke-width="0.5" stroke-miterlimit="10" x1="537.7" y1="485.3" x2="537.7" y2="497.2"/>
	<path fill="none" stroke="#FFFFFF" stroke-width="0.5" stroke-miterlimit="10" d="M520.1,202.7c-5.6,0-5.1,5.1-5.1,5.1l-1-1"/>
	<line fill="none" stroke="#FFFFFF" stroke-miterlimit="10" x1="516.1" y1="206.8" x2="515" y2="207.7"/>
	<rect x="520.1" y="206.8" fill="none" width="46.4" height="25.8"/>
	<text transform="matrix(1 0 0 1 520.0947 212.1382)" fill="#FFFFFF" font-family="'Roboto-Thin'" font-size="7">in reation with</text>
	<g>
		<g>
			<path fill="none" stroke="#FFFFFF" stroke-width="0.5" stroke-miterlimit="10" d="M515,262.2c0,0-0.1,0.7,0.1,1.5"/>
			<path fill="none" stroke="#FFFFFF" stroke-width="0.5" stroke-miterlimit="10" stroke-dasharray="3.057,3.057" d="M516.7,266.3
				c0.8,0.6,1.9,1,3.5,1c4.5,0,23.9-0.2,31.5-0.2"/>
			<path fill="none" stroke="#FFFFFF" stroke-width="0.5" stroke-miterlimit="10" d="M553.1,267.1c1,0,1.5,0,1.5,0"/>
		</g>
	</g>
	<polyline fill="none" stroke="#FFFFFF" stroke-width="0.5" stroke-miterlimit="10" points="555.4,266.1 556.3,267 555.5,267.9 	"/>
	<line fill="none" stroke="#FFFFFF" stroke-width="0.5" stroke-miterlimit="10" x1="554.6" y1="267.1" x2="556" y2="267.1"/>
	<g>
		<polyline fill="none" stroke="#FFFFFF" stroke-width="0.5" stroke-miterlimit="10" points="307.9,444.2 307.9,465.2 309.3,463.8 
					"/>
		<line fill="none" stroke="#FFFFFF" stroke-width="0.5" stroke-miterlimit="10" x1="306.6" y1="463.9" x2="307.9" y2="465.2"/>
	</g>
	<g>
		<polyline fill="none" stroke="#FFFFFF" stroke-width="0.5" stroke-miterlimit="10" points="788.9,227.2 788.9,248.2 790.3,246.8 
					"/>
		<line fill="none" stroke="#FFFFFF" stroke-width="0.5" stroke-miterlimit="10" x1="787.6" y1="246.9" x2="788.9" y2="248.2"/>
	</g>
</g>
</svg>
