<?xml version="1.0" encoding="utf-8"?>
<!-- Generator: Adobe Illustrator 17.0.0, SVG Export Plug-In . SVG Version: 6.00 Build 0)  -->
<!DOCTYPE svg PUBLIC "-//W3C//DTD SVG 1.1//EN" "http://www.w3.org/Graphics/SVG/1.1/DTD/svg11.dtd">
<svg version="1.1" id="Livello_1" xmlns="http://www.w3.org/2000/svg" xmlns:xlink="http://www.w3.org/1999/xlink" x="0px" y="0px"
	 width="1024px" height="768px" viewBox="0 0 1024 768" enable-background="new 0 0 1024 768" xml:space="preserve">
<rect x="1" fill="#FFF6F4" width="1022" height="768"/>
<text transform="matrix(1 0 0 1 480.9229 284.0747)"><tspan x="0" y="0" fill="#1A171B" font-family="'Lato-Bold'" font-size="15">P</tspan><tspan x="8.535" y="0" fill="#1A171B" font-family="'Lato-Bold'" font-size="15">ALMYRA</tspan></text>
<text transform="matrix(1 0 0 1 551.6182 284.0747)" fill="#1A171B" font-family="'Lato-Regular'" font-size="15"> </text>
<path fill="#1A171B" d="M485.236,303.462c1.245,0,2.184,0.273,2.816,0.817c0.632,0.545,0.949,1.323,0.949,2.333
	c0,0.465-0.088,0.892-0.263,1.283c-0.175,0.39-0.425,0.726-0.75,1.009c-0.325,0.283-0.72,0.503-1.185,0.66s-0.988,0.236-1.568,0.236
	h-1.973v4.275h-0.772v-10.612H485.236z M485.236,309.185c0.465,0,0.882-0.065,1.253-0.195c0.37-0.13,0.684-0.31,0.941-0.54
	c0.257-0.23,0.455-0.501,0.592-0.814c0.137-0.312,0.206-0.654,0.206-1.024c0-0.815-0.25-1.442-0.75-1.883
	c-0.5-0.44-1.248-0.66-2.242-0.66h-1.973v5.115H485.236z M490.621,310.047v0.142c0,0.56,0.065,1.053,0.195,1.478
	c0.13,0.425,0.315,0.781,0.555,1.069c0.24,0.288,0.53,0.504,0.87,0.649c0.34,0.145,0.72,0.217,1.14,0.217
	c0.375,0,0.7-0.041,0.975-0.124c0.275-0.082,0.506-0.175,0.694-0.277c0.188-0.102,0.336-0.195,0.446-0.277
	c0.11-0.083,0.19-0.124,0.24-0.124c0.065,0,0.115,0.025,0.15,0.075l0.195,0.24c-0.12,0.15-0.279,0.29-0.476,0.42
	c-0.198,0.13-0.418,0.241-0.66,0.334c-0.243,0.093-0.503,0.166-0.78,0.221c-0.277,0.055-0.556,0.082-0.836,0.082
	c-0.51,0-0.975-0.089-1.395-0.266c-0.42-0.177-0.78-0.436-1.08-0.776c-0.3-0.34-0.531-0.756-0.694-1.249
	c-0.163-0.492-0.244-1.056-0.244-1.691c0-0.535,0.076-1.029,0.229-1.481c0.152-0.452,0.372-0.842,0.66-1.17
	c0.287-0.327,0.64-0.584,1.057-0.769c0.417-0.185,0.891-0.277,1.421-0.277c0.42,0,0.81,0.073,1.17,0.217
	c0.36,0.145,0.672,0.356,0.938,0.634c0.265,0.278,0.474,0.619,0.626,1.024c0.152,0.405,0.229,0.87,0.229,1.395
	c0,0.11-0.015,0.185-0.045,0.225c-0.03,0.04-0.08,0.06-0.15,0.06H490.621z M495.601,309.59c0-0.4-0.056-0.759-0.169-1.076
	c-0.113-0.317-0.271-0.586-0.476-0.806c-0.205-0.22-0.449-0.389-0.731-0.506c-0.283-0.117-0.594-0.176-0.934-0.176
	c-0.385,0-0.73,0.06-1.035,0.18c-0.305,0.12-0.569,0.292-0.791,0.517c-0.223,0.225-0.401,0.495-0.536,0.81
	c-0.135,0.315-0.225,0.668-0.27,1.058H495.601z M498.863,308.412c0.115-0.305,0.246-0.576,0.394-0.814
	c0.147-0.237,0.317-0.439,0.51-0.604c0.192-0.165,0.407-0.291,0.645-0.379c0.237-0.087,0.501-0.131,0.791-0.131
	c0.155,0,0.307,0.014,0.457,0.041c0.15,0.028,0.282,0.076,0.398,0.146l-0.06,0.495c-0.025,0.08-0.073,0.12-0.142,0.12
	c-0.06,0-0.151-0.017-0.274-0.052c-0.123-0.035-0.284-0.052-0.484-0.052c-0.29,0-0.546,0.044-0.769,0.131
	c-0.223,0.088-0.423,0.219-0.6,0.394c-0.178,0.175-0.333,0.391-0.465,0.649c-0.133,0.258-0.254,0.554-0.364,0.889v4.83h-0.72v-7.462
	h0.382c0.085,0,0.145,0.018,0.18,0.052c0.035,0.035,0.057,0.095,0.067,0.18L498.863,308.412z M508.088,307.61
	c-0.025,0.025-0.049,0.046-0.071,0.064c-0.022,0.018-0.054,0.026-0.094,0.026c-0.05,0-0.118-0.034-0.202-0.101
	c-0.085-0.068-0.2-0.141-0.345-0.221c-0.145-0.08-0.326-0.154-0.544-0.221c-0.217-0.067-0.481-0.101-0.791-0.101
	c-0.43,0-0.811,0.076-1.144,0.229c-0.333,0.153-0.614,0.371-0.844,0.656c-0.23,0.285-0.404,0.63-0.521,1.035
	c-0.118,0.405-0.176,0.86-0.176,1.365c0,0.525,0.061,0.99,0.184,1.395c0.122,0.405,0.296,0.746,0.521,1.024s0.497,0.489,0.818,0.634
	c0.32,0.145,0.675,0.217,1.065,0.217c0.36,0,0.661-0.042,0.904-0.128c0.242-0.085,0.443-0.177,0.6-0.277
	c0.158-0.1,0.281-0.192,0.371-0.277c0.09-0.085,0.165-0.128,0.225-0.128c0.06,0,0.11,0.025,0.15,0.075l0.188,0.24
	c-0.115,0.15-0.26,0.29-0.435,0.42c-0.175,0.13-0.373,0.243-0.592,0.337c-0.22,0.095-0.459,0.169-0.716,0.221
	c-0.258,0.053-0.526,0.079-0.806,0.079c-0.475,0-0.909-0.086-1.301-0.259c-0.393-0.172-0.73-0.422-1.013-0.75
	c-0.283-0.327-0.503-0.729-0.66-1.204c-0.157-0.475-0.236-1.015-0.236-1.62c0-0.57,0.075-1.09,0.225-1.56
	c0.15-0.47,0.37-0.875,0.66-1.215c0.29-0.34,0.644-0.604,1.061-0.791c0.417-0.188,0.896-0.281,1.436-0.281
	c0.485,0,0.915,0.078,1.29,0.232c0.375,0.155,0.702,0.365,0.982,0.63L508.088,307.61z M510.255,310.047v0.142
	c0,0.56,0.065,1.053,0.195,1.478c0.13,0.425,0.315,0.781,0.555,1.069c0.24,0.288,0.53,0.504,0.87,0.649
	c0.34,0.145,0.72,0.217,1.14,0.217c0.375,0,0.7-0.041,0.975-0.124c0.275-0.082,0.506-0.175,0.694-0.277
	c0.188-0.102,0.336-0.195,0.446-0.277c0.11-0.083,0.19-0.124,0.24-0.124c0.065,0,0.115,0.025,0.15,0.075l0.195,0.24
	c-0.12,0.15-0.279,0.29-0.476,0.42c-0.198,0.13-0.418,0.241-0.66,0.334c-0.243,0.093-0.503,0.166-0.78,0.221
	c-0.277,0.055-0.556,0.082-0.836,0.082c-0.51,0-0.975-0.089-1.395-0.266c-0.42-0.177-0.78-0.436-1.08-0.776
	c-0.3-0.34-0.531-0.756-0.694-1.249c-0.163-0.492-0.244-1.056-0.244-1.691c0-0.535,0.076-1.029,0.229-1.481
	c0.152-0.452,0.372-0.842,0.66-1.17c0.287-0.327,0.64-0.584,1.057-0.769c0.417-0.185,0.891-0.277,1.421-0.277
	c0.42,0,0.81,0.073,1.17,0.217c0.36,0.145,0.672,0.356,0.938,0.634c0.265,0.278,0.474,0.619,0.626,1.024
	c0.152,0.405,0.229,0.87,0.229,1.395c0,0.11-0.015,0.185-0.045,0.225c-0.03,0.04-0.08,0.06-0.15,0.06H510.255z M515.235,309.59
	c0-0.4-0.056-0.759-0.169-1.076c-0.112-0.317-0.271-0.586-0.476-0.806c-0.205-0.22-0.449-0.389-0.731-0.506
	c-0.283-0.117-0.594-0.176-0.934-0.176c-0.385,0-0.73,0.06-1.035,0.18c-0.305,0.12-0.569,0.292-0.791,0.517
	c-0.223,0.225-0.401,0.495-0.536,0.81c-0.135,0.315-0.225,0.668-0.27,1.058H515.235z M518.918,304.04
	c0,0.09-0.019,0.174-0.056,0.251c-0.037,0.078-0.086,0.146-0.146,0.206c-0.06,0.06-0.13,0.108-0.21,0.143
	c-0.08,0.035-0.165,0.052-0.255,0.052c-0.09,0-0.175-0.017-0.255-0.052c-0.08-0.035-0.15-0.082-0.21-0.143
	c-0.06-0.06-0.108-0.129-0.143-0.206c-0.035-0.077-0.052-0.161-0.052-0.251s0.017-0.176,0.052-0.259
	c0.035-0.082,0.083-0.154,0.143-0.214s0.13-0.107,0.21-0.142c0.08-0.035,0.165-0.053,0.255-0.053c0.09,0,0.175,0.018,0.255,0.053
	c0.08,0.035,0.15,0.082,0.21,0.142s0.109,0.131,0.146,0.214C518.899,303.864,518.918,303.95,518.918,304.04z M518.61,306.612v7.462
	h-0.713v-7.462H518.61z M527.138,306.612l-3.15,7.462h-0.63l-3.15-7.462h0.562c0.07,0,0.128,0.019,0.173,0.056
	c0.045,0.038,0.075,0.079,0.09,0.124l2.468,5.888c0.075,0.22,0.135,0.438,0.18,0.652c0.045-0.215,0.107-0.432,0.188-0.652
	l2.475-5.888c0.025-0.055,0.059-0.099,0.101-0.131c0.042-0.032,0.094-0.049,0.154-0.049H527.138z M529.763,304.04
	c0,0.09-0.019,0.174-0.056,0.251c-0.037,0.078-0.086,0.146-0.146,0.206c-0.06,0.06-0.13,0.108-0.21,0.143
	c-0.08,0.035-0.165,0.052-0.255,0.052c-0.09,0-0.175-0.017-0.255-0.052c-0.08-0.035-0.15-0.082-0.21-0.143
	c-0.06-0.06-0.108-0.129-0.143-0.206c-0.035-0.077-0.052-0.161-0.052-0.251s0.017-0.176,0.052-0.259
	c0.035-0.082,0.083-0.154,0.143-0.214s0.13-0.107,0.21-0.142c0.08-0.035,0.165-0.053,0.255-0.053c0.09,0,0.175,0.018,0.255,0.053
	c0.08,0.035,0.15,0.082,0.21,0.142s0.109,0.131,0.146,0.214C529.744,303.864,529.763,303.95,529.763,304.04z M529.456,306.612v7.462
	h-0.713v-7.462H529.456z M532.673,307.917c0.345-0.43,0.744-0.775,1.196-1.035c0.452-0.26,0.956-0.39,1.511-0.39
	c0.41,0,0.771,0.065,1.084,0.195c0.312,0.13,0.571,0.318,0.776,0.562c0.205,0.245,0.36,0.54,0.465,0.885s0.157,0.735,0.157,1.17
	v4.77h-0.72v-4.77c0-0.7-0.16-1.249-0.48-1.646c-0.32-0.397-0.808-0.596-1.463-0.596c-0.485,0-0.939,0.124-1.361,0.371
	c-0.423,0.247-0.799,0.591-1.129,1.031v5.61h-0.72v-7.462h0.398c0.125,0,0.197,0.063,0.217,0.188L532.673,307.917z M546.248,306.942
	v0.247c0,0.11-0.07,0.178-0.21,0.203l-1.14,0.082c0.14,0.19,0.247,0.403,0.323,0.638c0.075,0.235,0.112,0.49,0.112,0.765
	c0,0.36-0.064,0.686-0.191,0.979s-0.307,0.543-0.54,0.75c-0.232,0.208-0.513,0.369-0.84,0.484c-0.328,0.115-0.689,0.172-1.084,0.172
	c-0.425,0-0.813-0.065-1.162-0.195c-0.21,0.12-0.376,0.261-0.499,0.424c-0.123,0.163-0.184,0.324-0.184,0.484
	c0,0.215,0.076,0.38,0.229,0.495c0.152,0.115,0.352,0.199,0.6,0.251c0.247,0.053,0.53,0.086,0.848,0.101
	c0.317,0.015,0.641,0.031,0.971,0.049c0.33,0.018,0.654,0.049,0.971,0.094c0.318,0.045,0.6,0.124,0.848,0.236s0.447,0.27,0.6,0.473
	c0.152,0.202,0.229,0.471,0.229,0.806c0,0.31-0.078,0.608-0.232,0.892c-0.155,0.285-0.379,0.537-0.671,0.758
	c-0.292,0.22-0.646,0.396-1.061,0.529c-0.415,0.132-0.88,0.199-1.395,0.199c-0.525,0-0.985-0.054-1.38-0.161
	c-0.395-0.108-0.726-0.253-0.994-0.435c-0.268-0.183-0.469-0.394-0.604-0.634c-0.135-0.24-0.203-0.495-0.203-0.765
	c0-0.395,0.13-0.734,0.39-1.016c0.26-0.282,0.615-0.504,1.065-0.664c-0.25-0.085-0.451-0.209-0.604-0.371
	c-0.153-0.162-0.229-0.384-0.229-0.664c0-0.105,0.02-0.215,0.06-0.33c0.04-0.115,0.1-0.229,0.18-0.341
	c0.08-0.112,0.177-0.219,0.292-0.319c0.115-0.1,0.245-0.19,0.39-0.27c-0.355-0.205-0.631-0.477-0.829-0.818
	c-0.198-0.34-0.296-0.737-0.296-1.193c0-0.36,0.064-0.686,0.191-0.979c0.128-0.293,0.309-0.544,0.544-0.754
	c0.235-0.21,0.516-0.372,0.844-0.488c0.327-0.115,0.691-0.172,1.091-0.172c0.33,0,0.634,0.04,0.911,0.12
	c0.278,0.08,0.526,0.193,0.746,0.337H546.248z M545.468,314.577c0-0.235-0.061-0.424-0.184-0.566
	c-0.123-0.142-0.286-0.254-0.491-0.334c-0.205-0.08-0.441-0.136-0.709-0.169c-0.268-0.032-0.547-0.056-0.84-0.071
	c-0.293-0.015-0.586-0.03-0.881-0.045c-0.295-0.015-0.573-0.045-0.832-0.09c-0.19,0.075-0.365,0.161-0.525,0.259
	c-0.16,0.098-0.298,0.209-0.412,0.334c-0.115,0.125-0.205,0.261-0.27,0.409c-0.065,0.147-0.097,0.306-0.097,0.476
	c0,0.22,0.056,0.424,0.169,0.611c0.113,0.188,0.278,0.35,0.495,0.487c0.218,0.137,0.484,0.246,0.799,0.326
	c0.315,0.08,0.677,0.12,1.088,0.12c0.38,0,0.734-0.043,1.061-0.128c0.327-0.085,0.612-0.205,0.855-0.36
	c0.242-0.155,0.432-0.34,0.57-0.555C545.399,315.067,545.468,314.832,545.468,314.577z M542.678,310.775
	c0.32,0,0.605-0.046,0.855-0.139c0.25-0.092,0.46-0.221,0.63-0.386c0.17-0.165,0.3-0.362,0.39-0.592
	c0.09-0.23,0.135-0.485,0.135-0.765c0-0.28-0.046-0.536-0.139-0.769c-0.093-0.232-0.225-0.431-0.398-0.596
	c-0.172-0.165-0.383-0.293-0.63-0.383s-0.529-0.135-0.844-0.135s-0.596,0.045-0.844,0.135s-0.457,0.217-0.63,0.383
	c-0.172,0.165-0.304,0.364-0.394,0.596c-0.09,0.233-0.135,0.489-0.135,0.769c0,0.28,0.045,0.535,0.135,0.765
	c0.09,0.23,0.221,0.428,0.394,0.592c0.173,0.165,0.383,0.294,0.63,0.386C542.082,310.729,542.363,310.775,542.678,310.775z
	 M556.973,307.61c-0.025,0.025-0.049,0.046-0.071,0.064c-0.023,0.018-0.054,0.026-0.094,0.026c-0.05,0-0.118-0.034-0.203-0.101
	c-0.085-0.068-0.2-0.141-0.345-0.221c-0.145-0.08-0.326-0.154-0.544-0.221c-0.218-0.067-0.481-0.101-0.791-0.101
	c-0.43,0-0.811,0.076-1.144,0.229c-0.333,0.153-0.614,0.371-0.844,0.656c-0.23,0.285-0.404,0.63-0.521,1.035
	c-0.117,0.405-0.176,0.86-0.176,1.365c0,0.525,0.061,0.99,0.184,1.395c0.122,0.405,0.296,0.746,0.521,1.024
	c0.225,0.277,0.497,0.489,0.818,0.634c0.32,0.145,0.675,0.217,1.065,0.217c0.36,0,0.661-0.042,0.904-0.128
	c0.242-0.085,0.443-0.177,0.6-0.277c0.157-0.1,0.281-0.192,0.371-0.277c0.09-0.085,0.165-0.128,0.225-0.128s0.11,0.025,0.15,0.075
	l0.188,0.24c-0.115,0.15-0.26,0.29-0.435,0.42c-0.175,0.13-0.372,0.243-0.592,0.337c-0.22,0.095-0.459,0.169-0.716,0.221
	c-0.258,0.053-0.526,0.079-0.806,0.079c-0.475,0-0.909-0.086-1.301-0.259c-0.393-0.172-0.73-0.422-1.012-0.75
	c-0.283-0.327-0.503-0.729-0.66-1.204c-0.157-0.475-0.236-1.015-0.236-1.62c0-0.57,0.075-1.09,0.225-1.56
	c0.15-0.47,0.37-0.875,0.66-1.215c0.29-0.34,0.644-0.604,1.061-0.791c0.417-0.188,0.896-0.281,1.436-0.281
	c0.485,0,0.915,0.078,1.29,0.232c0.375,0.155,0.702,0.365,0.982,0.63L556.973,307.61z M559.74,307.872
	c0.345-0.42,0.739-0.755,1.181-1.005c0.443-0.25,0.939-0.375,1.489-0.375c0.41,0,0.771,0.065,1.084,0.195
	c0.312,0.13,0.571,0.318,0.776,0.562c0.205,0.245,0.36,0.54,0.465,0.885s0.157,0.735,0.157,1.17v4.77h-0.72v-4.77
	c0-0.7-0.16-1.249-0.48-1.646c-0.32-0.397-0.808-0.596-1.463-0.596c-0.485,0-0.939,0.124-1.361,0.371
	c-0.423,0.247-0.799,0.591-1.129,1.031v5.61h-0.72v-10.913h0.72V307.872z M567.06,307.67c0.39-0.39,0.8-0.685,1.23-0.885
	c0.43-0.2,0.917-0.3,1.463-0.3c0.4,0,0.75,0.064,1.05,0.191s0.549,0.31,0.746,0.547c0.198,0.238,0.346,0.525,0.446,0.863
	c0.1,0.337,0.15,0.714,0.15,1.129v4.86h-0.285c-0.15,0-0.243-0.07-0.278-0.21l-0.105-0.96c-0.205,0.2-0.409,0.38-0.611,0.54
	c-0.202,0.16-0.414,0.295-0.634,0.405c-0.22,0.11-0.458,0.195-0.713,0.255s-0.535,0.09-0.84,0.09c-0.255,0-0.503-0.038-0.742-0.112
	c-0.24-0.075-0.454-0.19-0.641-0.345c-0.188-0.155-0.337-0.354-0.45-0.596c-0.113-0.242-0.169-0.534-0.169-0.874
	c0-0.315,0.09-0.608,0.27-0.878c0.18-0.27,0.462-0.505,0.848-0.705c0.385-0.2,0.879-0.36,1.481-0.48
	c0.602-0.12,1.326-0.19,2.171-0.21v-0.78c0-0.69-0.149-1.221-0.446-1.594c-0.298-0.372-0.739-0.559-1.324-0.559
	c-0.36,0-0.666,0.05-0.919,0.15c-0.253,0.1-0.466,0.21-0.641,0.33c-0.175,0.12-0.318,0.23-0.427,0.33
	c-0.11,0.1-0.203,0.15-0.278,0.15c-0.055,0-0.1-0.012-0.135-0.038c-0.035-0.025-0.065-0.057-0.09-0.098L567.06,307.67z
	 M571.448,310.467c-0.71,0.025-1.321,0.081-1.834,0.169c-0.513,0.088-0.935,0.206-1.267,0.356c-0.333,0.15-0.579,0.329-0.739,0.536
	c-0.16,0.208-0.24,0.444-0.24,0.709c0,0.25,0.041,0.466,0.124,0.649c0.083,0.183,0.192,0.333,0.33,0.45
	c0.137,0.118,0.296,0.204,0.476,0.259c0.18,0.055,0.367,0.083,0.562,0.083c0.29,0,0.556-0.031,0.799-0.094
	c0.242-0.062,0.467-0.15,0.675-0.263c0.207-0.112,0.401-0.246,0.581-0.401c0.18-0.155,0.357-0.323,0.532-0.503V310.467z
	 M575.213,307.917c0.345-0.43,0.744-0.775,1.196-1.035c0.452-0.26,0.956-0.39,1.511-0.39c0.41,0,0.771,0.065,1.084,0.195
	c0.312,0.13,0.571,0.318,0.776,0.562c0.205,0.245,0.36,0.54,0.465,0.885s0.157,0.735,0.157,1.17v4.77h-0.72v-4.77
	c0-0.7-0.16-1.249-0.48-1.646c-0.32-0.397-0.808-0.596-1.463-0.596c-0.485,0-0.939,0.124-1.361,0.371
	c-0.423,0.247-0.799,0.591-1.129,1.031v5.61h-0.72v-7.462h0.398c0.125,0,0.197,0.063,0.217,0.188L575.213,307.917z M588.788,306.942
	v0.247c0,0.11-0.07,0.178-0.21,0.203l-1.14,0.082c0.14,0.19,0.247,0.403,0.323,0.638c0.075,0.235,0.112,0.49,0.112,0.765
	c0,0.36-0.064,0.686-0.191,0.979s-0.307,0.543-0.54,0.75c-0.232,0.208-0.513,0.369-0.84,0.484c-0.328,0.115-0.689,0.172-1.084,0.172
	c-0.425,0-0.813-0.065-1.162-0.195c-0.21,0.12-0.376,0.261-0.499,0.424c-0.123,0.163-0.184,0.324-0.184,0.484
	c0,0.215,0.076,0.38,0.229,0.495c0.152,0.115,0.352,0.199,0.6,0.251c0.247,0.053,0.53,0.086,0.848,0.101
	c0.317,0.015,0.641,0.031,0.971,0.049c0.33,0.018,0.654,0.049,0.971,0.094c0.318,0.045,0.6,0.124,0.848,0.236s0.447,0.27,0.6,0.473
	c0.152,0.202,0.229,0.471,0.229,0.806c0,0.31-0.078,0.608-0.232,0.892c-0.155,0.285-0.379,0.537-0.671,0.758
	c-0.292,0.22-0.646,0.396-1.061,0.529c-0.415,0.132-0.88,0.199-1.395,0.199c-0.525,0-0.985-0.054-1.38-0.161
	c-0.395-0.108-0.726-0.253-0.994-0.435c-0.268-0.183-0.469-0.394-0.604-0.634c-0.135-0.24-0.203-0.495-0.203-0.765
	c0-0.395,0.13-0.734,0.39-1.016c0.26-0.282,0.615-0.504,1.065-0.664c-0.25-0.085-0.451-0.209-0.604-0.371
	c-0.153-0.162-0.229-0.384-0.229-0.664c0-0.105,0.02-0.215,0.06-0.33c0.04-0.115,0.1-0.229,0.18-0.341
	c0.08-0.112,0.177-0.219,0.292-0.319c0.115-0.1,0.245-0.19,0.39-0.27c-0.355-0.205-0.631-0.477-0.829-0.818
	c-0.198-0.34-0.296-0.737-0.296-1.193c0-0.36,0.064-0.686,0.191-0.979c0.128-0.293,0.309-0.544,0.544-0.754
	c0.235-0.21,0.516-0.372,0.844-0.488c0.327-0.115,0.691-0.172,1.091-0.172c0.33,0,0.634,0.04,0.911,0.12
	c0.278,0.08,0.526,0.193,0.746,0.337H588.788z M588.008,314.577c0-0.235-0.061-0.424-0.184-0.566
	c-0.123-0.142-0.286-0.254-0.491-0.334c-0.205-0.08-0.441-0.136-0.709-0.169c-0.268-0.032-0.547-0.056-0.84-0.071
	c-0.293-0.015-0.586-0.03-0.881-0.045c-0.295-0.015-0.573-0.045-0.832-0.09c-0.19,0.075-0.365,0.161-0.525,0.259
	c-0.16,0.098-0.298,0.209-0.412,0.334c-0.115,0.125-0.205,0.261-0.27,0.409c-0.065,0.147-0.097,0.306-0.097,0.476
	c0,0.22,0.056,0.424,0.169,0.611c0.113,0.188,0.278,0.35,0.495,0.487c0.218,0.137,0.484,0.246,0.799,0.326
	c0.315,0.08,0.677,0.12,1.088,0.12c0.38,0,0.734-0.043,1.061-0.128c0.327-0.085,0.612-0.205,0.855-0.36
	c0.242-0.155,0.432-0.34,0.57-0.555C587.939,315.067,588.008,314.832,588.008,314.577z M585.218,310.775
	c0.32,0,0.605-0.046,0.855-0.139c0.25-0.092,0.46-0.221,0.63-0.386c0.17-0.165,0.3-0.362,0.39-0.592
	c0.09-0.23,0.135-0.485,0.135-0.765c0-0.28-0.046-0.536-0.139-0.769c-0.093-0.232-0.225-0.431-0.398-0.596
	c-0.172-0.165-0.383-0.293-0.63-0.383s-0.529-0.135-0.844-0.135s-0.596,0.045-0.844,0.135s-0.457,0.217-0.63,0.383
	c-0.172,0.165-0.304,0.364-0.394,0.596c-0.09,0.233-0.135,0.489-0.135,0.769c0,0.28,0.045,0.535,0.135,0.765
	c0.09,0.23,0.221,0.428,0.394,0.592c0.173,0.165,0.383,0.294,0.63,0.386C584.622,310.729,584.903,310.775,585.218,310.775z
	 M590.646,310.047v0.142c0,0.56,0.065,1.053,0.195,1.478c0.13,0.425,0.315,0.781,0.555,1.069c0.24,0.288,0.53,0.504,0.87,0.649
	c0.34,0.145,0.72,0.217,1.14,0.217c0.375,0,0.7-0.041,0.975-0.124c0.275-0.082,0.506-0.175,0.694-0.277
	c0.188-0.102,0.336-0.195,0.446-0.277c0.11-0.083,0.19-0.124,0.24-0.124c0.065,0,0.115,0.025,0.15,0.075l0.195,0.24
	c-0.12,0.15-0.279,0.29-0.476,0.42c-0.198,0.13-0.418,0.241-0.66,0.334c-0.243,0.093-0.503,0.166-0.78,0.221
	c-0.278,0.055-0.556,0.082-0.836,0.082c-0.51,0-0.975-0.089-1.395-0.266c-0.42-0.177-0.78-0.436-1.08-0.776
	c-0.3-0.34-0.531-0.756-0.694-1.249c-0.163-0.492-0.244-1.056-0.244-1.691c0-0.535,0.076-1.029,0.229-1.481
	c0.152-0.452,0.372-0.842,0.66-1.17c0.287-0.327,0.64-0.584,1.057-0.769c0.417-0.185,0.891-0.277,1.421-0.277
	c0.42,0,0.81,0.073,1.17,0.217c0.36,0.145,0.672,0.356,0.938,0.634c0.265,0.278,0.474,0.619,0.626,1.024
	c0.152,0.405,0.229,0.87,0.229,1.395c0,0.11-0.015,0.185-0.045,0.225c-0.03,0.04-0.08,0.06-0.15,0.06H590.646z M595.626,309.59
	c0-0.4-0.056-0.759-0.169-1.076c-0.112-0.317-0.271-0.586-0.476-0.806c-0.205-0.22-0.449-0.389-0.731-0.506
	c-0.283-0.117-0.594-0.176-0.934-0.176c-0.385,0-0.73,0.06-1.035,0.18c-0.305,0.12-0.569,0.292-0.791,0.517
	c-0.223,0.225-0.401,0.495-0.536,0.81s-0.225,0.668-0.27,1.058H595.626z M602.991,307.91c0.325-0.44,0.705-0.786,1.14-1.039
	c0.435-0.252,0.94-0.379,1.515-0.379c0.45,0,0.852,0.082,1.208,0.247c0.355,0.165,0.656,0.403,0.904,0.712
	c0.247,0.31,0.436,0.691,0.566,1.144c0.13,0.453,0.195,0.966,0.195,1.541c0,0.605-0.073,1.156-0.217,1.654
	c-0.145,0.498-0.356,0.923-0.634,1.275c-0.277,0.353-0.616,0.625-1.016,0.818c-0.4,0.192-0.858,0.289-1.372,0.289
	c-0.53,0-0.981-0.101-1.354-0.304c-0.372-0.203-0.694-0.504-0.964-0.904l-0.052,0.922c-0.015,0.125-0.083,0.188-0.203,0.188h-0.435
	v-10.913h0.72V307.91z M602.991,312.447c0.29,0.43,0.609,0.731,0.956,0.904c0.347,0.173,0.739,0.259,1.174,0.259
	c0.445,0,0.834-0.08,1.166-0.24c0.332-0.16,0.61-0.389,0.832-0.686c0.222-0.297,0.389-0.659,0.499-1.084
	c0.11-0.425,0.165-0.902,0.165-1.432c0-1.03-0.205-1.805-0.615-2.325c-0.41-0.52-0.985-0.78-1.725-0.78
	c-0.53,0-0.993,0.128-1.388,0.383c-0.395,0.255-0.75,0.61-1.065,1.065V312.447z M616.409,306.612l-4.29,9.862
	c-0.03,0.07-0.069,0.128-0.116,0.173c-0.048,0.045-0.116,0.068-0.206,0.068h-0.51l1.312-2.918l-3.158-7.185h0.593
	c0.075,0,0.135,0.019,0.18,0.056s0.075,0.079,0.09,0.124l2.512,5.805c0.03,0.075,0.056,0.151,0.079,0.229
	c0.022,0.078,0.044,0.156,0.064,0.236c0.025-0.08,0.051-0.159,0.079-0.236c0.027-0.077,0.056-0.154,0.086-0.229l2.483-5.805
	c0.025-0.055,0.06-0.099,0.105-0.131c0.045-0.032,0.095-0.049,0.15-0.049H616.409z M627.794,314.075h-0.72v-6.698h-4.32v5.062
	c0,0.205,0.026,0.381,0.079,0.529c0.052,0.148,0.125,0.269,0.218,0.364c0.092,0.095,0.201,0.165,0.326,0.21
	c0.125,0.045,0.26,0.068,0.405,0.068c0.18,0,0.335-0.026,0.465-0.079c0.13-0.052,0.242-0.11,0.338-0.172
	c0.095-0.062,0.172-0.12,0.232-0.173c0.06-0.052,0.107-0.079,0.143-0.079c0.04,0,0.08,0.025,0.12,0.075l0.195,0.315
	c-0.19,0.21-0.431,0.379-0.724,0.506c-0.293,0.128-0.596,0.191-0.911,0.191c-0.505,0-0.899-0.14-1.181-0.42
	c-0.283-0.28-0.424-0.713-0.424-1.298v-5.1h-1.072c-0.055,0-0.1-0.015-0.135-0.045c-0.035-0.03-0.052-0.072-0.052-0.128v-0.277
	l1.275-0.09l0.18-2.67c0.01-0.045,0.03-0.085,0.06-0.12c0.03-0.035,0.072-0.052,0.128-0.052h0.338v2.85h5.04V314.075z
	 M628.124,303.95c0,0.09-0.019,0.174-0.056,0.251c-0.037,0.078-0.088,0.146-0.15,0.206c-0.063,0.06-0.134,0.108-0.214,0.143
	c-0.08,0.035-0.165,0.052-0.255,0.052c-0.09,0-0.175-0.017-0.255-0.052c-0.08-0.035-0.15-0.083-0.21-0.143s-0.108-0.129-0.143-0.206
	c-0.035-0.077-0.052-0.161-0.052-0.251s0.017-0.176,0.052-0.259c0.035-0.082,0.083-0.154,0.143-0.214s0.13-0.107,0.21-0.142
	c0.08-0.035,0.165-0.053,0.255-0.053c0.09,0,0.175,0.018,0.255,0.053c0.08,0.035,0.151,0.082,0.214,0.142
	c0.062,0.06,0.112,0.131,0.15,0.214C628.105,303.774,628.124,303.86,628.124,303.95z M630.329,314.075v-7.462h0.398
	c0.125,0,0.197,0.063,0.217,0.188l0.068,1.08c0.29-0.415,0.622-0.75,0.997-1.005c0.375-0.255,0.797-0.382,1.268-0.382
	c0.545,0,0.981,0.158,1.309,0.473c0.327,0.315,0.549,0.753,0.664,1.312c0.09-0.305,0.216-0.57,0.379-0.795
	c0.162-0.225,0.349-0.411,0.559-0.559c0.21-0.147,0.439-0.256,0.686-0.326c0.247-0.07,0.501-0.105,0.761-0.105
	c0.37,0,0.702,0.061,0.997,0.184c0.295,0.123,0.545,0.304,0.75,0.544c0.205,0.24,0.362,0.535,0.473,0.885
	c0.11,0.35,0.165,0.75,0.165,1.2v4.77h-0.712v-4.77c0-0.73-0.158-1.286-0.473-1.669s-0.765-0.574-1.35-0.574
	c-0.26,0-0.509,0.048-0.746,0.143c-0.238,0.095-0.448,0.236-0.63,0.424c-0.183,0.188-0.328,0.421-0.435,0.701
	c-0.108,0.28-0.161,0.605-0.161,0.975v4.77h-0.72v-4.77c0-0.725-0.144-1.28-0.431-1.665c-0.288-0.385-0.709-0.578-1.264-0.578
	c-0.405,0-0.78,0.12-1.125,0.36c-0.345,0.24-0.653,0.573-0.922,0.997v5.655H630.329z M642.659,310.047v0.142
	c0,0.56,0.065,1.053,0.195,1.478c0.13,0.425,0.315,0.781,0.555,1.069c0.24,0.288,0.53,0.504,0.87,0.649
	c0.34,0.145,0.72,0.217,1.14,0.217c0.375,0,0.7-0.041,0.975-0.124c0.275-0.082,0.506-0.175,0.694-0.277
	c0.188-0.102,0.336-0.195,0.446-0.277c0.11-0.083,0.19-0.124,0.24-0.124c0.065,0,0.115,0.025,0.15,0.075l0.195,0.24
	c-0.12,0.15-0.279,0.29-0.476,0.42c-0.198,0.13-0.418,0.241-0.66,0.334c-0.243,0.093-0.503,0.166-0.78,0.221
	c-0.278,0.055-0.556,0.082-0.836,0.082c-0.51,0-0.975-0.089-1.395-0.266c-0.42-0.177-0.78-0.436-1.08-0.776
	c-0.3-0.34-0.531-0.756-0.694-1.249c-0.163-0.492-0.244-1.056-0.244-1.691c0-0.535,0.076-1.029,0.229-1.481
	c0.152-0.452,0.372-0.842,0.66-1.17c0.287-0.327,0.64-0.584,1.057-0.769c0.417-0.185,0.891-0.277,1.421-0.277
	c0.42,0,0.81,0.073,1.17,0.217c0.36,0.145,0.672,0.356,0.938,0.634c0.265,0.278,0.474,0.619,0.626,1.024
	c0.152,0.405,0.229,0.87,0.229,1.395c0,0.11-0.015,0.185-0.045,0.225c-0.03,0.04-0.08,0.06-0.15,0.06H642.659z M647.639,309.59
	c0-0.4-0.056-0.759-0.169-1.076c-0.112-0.317-0.271-0.586-0.476-0.806c-0.205-0.22-0.449-0.389-0.731-0.506
	c-0.283-0.117-0.594-0.176-0.934-0.176c-0.385,0-0.73,0.06-1.035,0.18c-0.305,0.12-0.569,0.292-0.791,0.517
	c-0.223,0.225-0.401,0.495-0.536,0.81s-0.225,0.668-0.27,1.058H647.639z M650.023,309.32h3.488v0.608h-3.488V309.32z
	 M656.488,307.91c0.325-0.44,0.705-0.786,1.14-1.039c0.435-0.252,0.94-0.379,1.515-0.379c0.45,0,0.852,0.082,1.208,0.247
	c0.355,0.165,0.656,0.403,0.904,0.712c0.247,0.31,0.436,0.691,0.566,1.144c0.13,0.453,0.195,0.966,0.195,1.541
	c0,0.605-0.073,1.156-0.217,1.654c-0.145,0.498-0.356,0.923-0.634,1.275c-0.277,0.353-0.616,0.625-1.016,0.818
	c-0.4,0.192-0.858,0.289-1.372,0.289c-0.53,0-0.981-0.101-1.354-0.304c-0.372-0.203-0.694-0.504-0.964-0.904l-0.052,0.922
	c-0.015,0.125-0.083,0.188-0.203,0.188h-0.435v-10.913h0.72V307.91z M656.488,312.447c0.29,0.43,0.609,0.731,0.956,0.904
	c0.347,0.173,0.739,0.259,1.174,0.259c0.445,0,0.834-0.08,1.166-0.24c0.332-0.16,0.61-0.389,0.832-0.686
	c0.222-0.297,0.389-0.659,0.499-1.084c0.11-0.425,0.165-0.902,0.165-1.432c0-1.03-0.205-1.805-0.615-2.325
	c-0.41-0.52-0.985-0.78-1.725-0.78c-0.53,0-0.993,0.128-1.388,0.383c-0.395,0.255-0.75,0.61-1.065,1.065V312.447z M663.823,307.67
	c0.39-0.39,0.8-0.685,1.23-0.885c0.43-0.2,0.917-0.3,1.463-0.3c0.4,0,0.75,0.064,1.05,0.191s0.549,0.31,0.746,0.547
	c0.198,0.238,0.346,0.525,0.446,0.863c0.1,0.337,0.15,0.714,0.15,1.129v4.86h-0.285c-0.15,0-0.243-0.07-0.278-0.21l-0.105-0.96
	c-0.205,0.2-0.409,0.38-0.611,0.54c-0.202,0.16-0.414,0.295-0.634,0.405c-0.22,0.11-0.458,0.195-0.713,0.255s-0.535,0.09-0.84,0.09
	c-0.255,0-0.503-0.038-0.742-0.112c-0.24-0.075-0.454-0.19-0.641-0.345c-0.188-0.155-0.337-0.354-0.45-0.596
	c-0.113-0.242-0.169-0.534-0.169-0.874c0-0.315,0.09-0.608,0.27-0.878c0.18-0.27,0.462-0.505,0.848-0.705
	c0.385-0.2,0.879-0.36,1.481-0.48c0.602-0.12,1.326-0.19,2.171-0.21v-0.78c0-0.69-0.149-1.221-0.446-1.594
	c-0.298-0.372-0.739-0.559-1.324-0.559c-0.36,0-0.666,0.05-0.919,0.15c-0.253,0.1-0.466,0.21-0.641,0.33
	c-0.175,0.12-0.318,0.23-0.427,0.33c-0.11,0.1-0.203,0.15-0.278,0.15c-0.055,0-0.1-0.012-0.135-0.038
	c-0.035-0.025-0.065-0.057-0.09-0.098L663.823,307.67z M668.211,310.467c-0.71,0.025-1.321,0.081-1.834,0.169
	c-0.513,0.088-0.935,0.206-1.267,0.356c-0.333,0.15-0.579,0.329-0.739,0.536c-0.16,0.208-0.24,0.444-0.24,0.709
	c0,0.25,0.041,0.466,0.124,0.649c0.083,0.183,0.192,0.333,0.33,0.45c0.137,0.118,0.296,0.204,0.476,0.259
	c0.18,0.055,0.367,0.083,0.562,0.083c0.29,0,0.556-0.031,0.799-0.094c0.242-0.062,0.467-0.15,0.675-0.263
	c0.207-0.112,0.401-0.246,0.581-0.401c0.18-0.155,0.357-0.323,0.532-0.503V310.467z M675.396,307.535
	c-0.04,0.07-0.098,0.105-0.173,0.105c-0.055,0-0.125-0.031-0.21-0.094c-0.085-0.062-0.199-0.132-0.341-0.21
	c-0.143-0.077-0.319-0.147-0.529-0.21c-0.21-0.062-0.465-0.094-0.765-0.094c-0.27,0-0.516,0.039-0.739,0.116
	c-0.223,0.078-0.412,0.181-0.57,0.311c-0.157,0.13-0.279,0.281-0.364,0.454c-0.085,0.173-0.128,0.354-0.128,0.544
	c0,0.235,0.06,0.43,0.18,0.585c0.12,0.155,0.276,0.288,0.469,0.397c0.192,0.11,0.414,0.205,0.664,0.285
	c0.25,0.08,0.504,0.16,0.761,0.24c0.257,0.08,0.511,0.169,0.761,0.266c0.25,0.098,0.471,0.219,0.664,0.364
	c0.192,0.145,0.349,0.323,0.469,0.533c0.12,0.21,0.18,0.465,0.18,0.765c0,0.325-0.057,0.628-0.172,0.908
	c-0.115,0.28-0.284,0.523-0.506,0.728c-0.223,0.205-0.496,0.367-0.821,0.487c-0.325,0.12-0.697,0.18-1.117,0.18
	c-0.525,0-0.978-0.084-1.357-0.251c-0.38-0.167-0.72-0.386-1.02-0.656l0.165-0.255c0.025-0.04,0.054-0.07,0.086-0.09
	c0.032-0.02,0.076-0.03,0.131-0.03c0.065,0,0.144,0.04,0.236,0.12c0.092,0.08,0.216,0.166,0.371,0.259
	c0.155,0.093,0.346,0.179,0.574,0.259c0.227,0.08,0.509,0.12,0.844,0.12c0.315,0,0.592-0.044,0.832-0.131
	c0.24-0.087,0.44-0.206,0.6-0.356c0.16-0.15,0.281-0.326,0.364-0.529c0.082-0.202,0.124-0.416,0.124-0.641
	c0-0.25-0.06-0.457-0.18-0.622s-0.278-0.305-0.472-0.42c-0.195-0.115-0.416-0.212-0.664-0.292c-0.247-0.08-0.501-0.16-0.761-0.24
	c-0.26-0.08-0.514-0.167-0.761-0.262c-0.247-0.095-0.469-0.215-0.664-0.36c-0.195-0.145-0.352-0.321-0.472-0.529
	c-0.12-0.207-0.18-0.466-0.18-0.776c0-0.265,0.057-0.52,0.172-0.765c0.115-0.245,0.279-0.46,0.491-0.645
	c0.212-0.185,0.471-0.332,0.776-0.443c0.305-0.11,0.647-0.165,1.027-0.165c0.455,0,0.859,0.065,1.211,0.195
	c0.353,0.13,0.674,0.33,0.964,0.6L675.396,307.535z M677.923,310.047v0.142c0,0.56,0.065,1.053,0.195,1.478
	c0.13,0.425,0.315,0.781,0.555,1.069c0.24,0.288,0.53,0.504,0.87,0.649c0.34,0.145,0.72,0.217,1.14,0.217
	c0.375,0,0.7-0.041,0.975-0.124c0.275-0.082,0.506-0.175,0.694-0.277c0.188-0.102,0.336-0.195,0.446-0.277
	c0.11-0.083,0.19-0.124,0.24-0.124c0.065,0,0.115,0.025,0.15,0.075l0.195,0.24c-0.12,0.15-0.279,0.29-0.476,0.42
	c-0.198,0.13-0.418,0.241-0.66,0.334c-0.243,0.093-0.503,0.166-0.78,0.221c-0.278,0.055-0.556,0.082-0.836,0.082
	c-0.51,0-0.975-0.089-1.395-0.266c-0.42-0.177-0.78-0.436-1.08-0.776c-0.3-0.34-0.531-0.756-0.694-1.249
	c-0.163-0.492-0.244-1.056-0.244-1.691c0-0.535,0.076-1.029,0.229-1.481c0.152-0.452,0.372-0.842,0.66-1.17
	c0.287-0.327,0.64-0.584,1.057-0.769c0.417-0.185,0.891-0.277,1.421-0.277c0.42,0,0.81,0.073,1.17,0.217
	c0.36,0.145,0.672,0.356,0.938,0.634c0.265,0.278,0.474,0.619,0.626,1.024c0.152,0.405,0.229,0.87,0.229,1.395
	c0,0.11-0.015,0.185-0.045,0.225c-0.03,0.04-0.08,0.06-0.15,0.06H677.923z M682.903,309.59c0-0.4-0.056-0.759-0.169-1.076
	c-0.112-0.317-0.271-0.586-0.476-0.806c-0.205-0.22-0.449-0.389-0.731-0.506c-0.283-0.117-0.594-0.176-0.934-0.176
	c-0.385,0-0.73,0.06-1.035,0.18c-0.305,0.12-0.569,0.292-0.791,0.517c-0.223,0.225-0.401,0.495-0.536,0.81s-0.225,0.668-0.27,1.058
	H682.903z M691.288,303.162v10.913h-0.39c-0.13,0-0.205-0.065-0.225-0.195l-0.075-1.177c-0.33,0.45-0.715,0.808-1.155,1.073
	c-0.44,0.265-0.935,0.397-1.485,0.397c-0.92,0-1.635-0.317-2.145-0.953c-0.51-0.635-0.765-1.587-0.765-2.857
	c0-0.545,0.071-1.054,0.214-1.526c0.143-0.473,0.351-0.882,0.626-1.23c0.275-0.347,0.614-0.621,1.016-0.821
	c0.402-0.2,0.866-0.3,1.391-0.3c0.505,0,0.942,0.093,1.312,0.277c0.37,0.185,0.693,0.46,0.968,0.825v-4.425H691.288z
	 M690.576,308.217c-0.285-0.43-0.601-0.732-0.949-0.908c-0.348-0.175-0.744-0.262-1.189-0.262c-0.44,0-0.825,0.08-1.155,0.24
	c-0.33,0.16-0.606,0.386-0.829,0.679c-0.223,0.293-0.39,0.643-0.503,1.05c-0.112,0.408-0.169,0.856-0.169,1.346
	c0,1.11,0.204,1.926,0.611,2.449c0.407,0.523,0.996,0.784,1.766,0.784c0.49,0,0.938-0.128,1.343-0.382
	c0.405-0.255,0.762-0.612,1.073-1.073V308.217z M701.916,307.535c-0.04,0.07-0.098,0.105-0.173,0.105
	c-0.055,0-0.125-0.031-0.21-0.094c-0.085-0.062-0.199-0.132-0.341-0.21c-0.143-0.077-0.319-0.147-0.529-0.21
	c-0.21-0.062-0.465-0.094-0.765-0.094c-0.27,0-0.516,0.039-0.739,0.116c-0.223,0.078-0.412,0.181-0.57,0.311
	c-0.157,0.13-0.279,0.281-0.364,0.454c-0.085,0.173-0.128,0.354-0.128,0.544c0,0.235,0.06,0.43,0.18,0.585
	c0.12,0.155,0.276,0.288,0.469,0.397c0.192,0.11,0.414,0.205,0.664,0.285c0.25,0.08,0.504,0.16,0.761,0.24
	c0.257,0.08,0.511,0.169,0.761,0.266c0.25,0.098,0.471,0.219,0.664,0.364c0.192,0.145,0.349,0.323,0.469,0.533
	c0.12,0.21,0.18,0.465,0.18,0.765c0,0.325-0.057,0.628-0.172,0.908c-0.115,0.28-0.284,0.523-0.506,0.728
	c-0.223,0.205-0.496,0.367-0.821,0.487c-0.325,0.12-0.697,0.18-1.117,0.18c-0.525,0-0.978-0.084-1.357-0.251
	c-0.38-0.167-0.72-0.386-1.02-0.656l0.165-0.255c0.025-0.04,0.054-0.07,0.086-0.09c0.032-0.02,0.076-0.03,0.131-0.03
	c0.065,0,0.144,0.04,0.236,0.12c0.092,0.08,0.216,0.166,0.371,0.259c0.155,0.093,0.346,0.179,0.574,0.259
	c0.227,0.08,0.509,0.12,0.844,0.12c0.315,0,0.592-0.044,0.832-0.131c0.24-0.087,0.44-0.206,0.6-0.356
	c0.16-0.15,0.281-0.326,0.364-0.529c0.082-0.202,0.124-0.416,0.124-0.641c0-0.25-0.06-0.457-0.18-0.622s-0.278-0.305-0.472-0.42
	c-0.195-0.115-0.416-0.212-0.664-0.292c-0.247-0.08-0.501-0.16-0.761-0.24c-0.26-0.08-0.514-0.167-0.761-0.262
	c-0.247-0.095-0.469-0.215-0.664-0.36c-0.195-0.145-0.352-0.321-0.472-0.529c-0.12-0.207-0.18-0.466-0.18-0.776
	c0-0.265,0.057-0.52,0.172-0.765c0.115-0.245,0.279-0.46,0.491-0.645c0.212-0.185,0.471-0.332,0.776-0.443
	c0.305-0.11,0.647-0.165,1.027-0.165c0.455,0,0.859,0.065,1.211,0.195c0.353,0.13,0.674,0.33,0.964,0.6L701.916,307.535z
	 M704.443,310.047v0.142c0,0.56,0.065,1.053,0.195,1.478c0.13,0.425,0.315,0.781,0.555,1.069c0.24,0.288,0.53,0.504,0.87,0.649
	c0.34,0.145,0.72,0.217,1.14,0.217c0.375,0,0.7-0.041,0.975-0.124c0.275-0.082,0.506-0.175,0.694-0.277
	c0.188-0.102,0.336-0.195,0.446-0.277c0.11-0.083,0.19-0.124,0.24-0.124c0.065,0,0.115,0.025,0.15,0.075l0.195,0.24
	c-0.12,0.15-0.279,0.29-0.476,0.42c-0.198,0.13-0.418,0.241-0.66,0.334c-0.243,0.093-0.503,0.166-0.78,0.221
	c-0.278,0.055-0.556,0.082-0.836,0.082c-0.51,0-0.975-0.089-1.395-0.266c-0.42-0.177-0.78-0.436-1.08-0.776
	c-0.3-0.34-0.531-0.756-0.694-1.249c-0.163-0.492-0.244-1.056-0.244-1.691c0-0.535,0.076-1.029,0.229-1.481
	c0.152-0.452,0.372-0.842,0.66-1.17c0.287-0.327,0.64-0.584,1.057-0.769c0.417-0.185,0.891-0.277,1.421-0.277
	c0.42,0,0.81,0.073,1.17,0.217c0.36,0.145,0.672,0.356,0.938,0.634c0.265,0.278,0.474,0.619,0.626,1.024
	c0.152,0.405,0.229,0.87,0.229,1.395c0,0.11-0.015,0.185-0.045,0.225c-0.03,0.04-0.08,0.06-0.15,0.06H704.443z M709.423,309.59
	c0-0.4-0.056-0.759-0.169-1.076c-0.112-0.317-0.271-0.586-0.476-0.806c-0.205-0.22-0.449-0.389-0.731-0.506
	c-0.283-0.117-0.594-0.176-0.934-0.176c-0.385,0-0.73,0.06-1.035,0.18c-0.305,0.12-0.569,0.292-0.791,0.517
	c-0.223,0.225-0.401,0.495-0.536,0.81s-0.225,0.668-0.27,1.058H709.423z M711.793,307.67c0.39-0.39,0.8-0.685,1.23-0.885
	c0.43-0.2,0.917-0.3,1.463-0.3c0.4,0,0.75,0.064,1.05,0.191s0.549,0.31,0.746,0.547c0.198,0.238,0.346,0.525,0.446,0.863
	c0.1,0.337,0.15,0.714,0.15,1.129v4.86h-0.285c-0.15,0-0.243-0.07-0.278-0.21l-0.105-0.96c-0.205,0.2-0.409,0.38-0.611,0.54
	c-0.202,0.16-0.414,0.295-0.634,0.405c-0.22,0.11-0.458,0.195-0.713,0.255s-0.535,0.09-0.84,0.09c-0.255,0-0.503-0.038-0.742-0.112
	c-0.24-0.075-0.454-0.19-0.641-0.345c-0.188-0.155-0.337-0.354-0.45-0.596c-0.113-0.242-0.169-0.534-0.169-0.874
	c0-0.315,0.09-0.608,0.27-0.878c0.18-0.27,0.462-0.505,0.848-0.705c0.385-0.2,0.879-0.36,1.481-0.48
	c0.602-0.12,1.326-0.19,2.171-0.21v-0.78c0-0.69-0.149-1.221-0.446-1.594c-0.298-0.372-0.739-0.559-1.324-0.559
	c-0.36,0-0.666,0.05-0.919,0.15c-0.253,0.1-0.466,0.21-0.641,0.33c-0.175,0.12-0.318,0.23-0.427,0.33
	c-0.11,0.1-0.203,0.15-0.278,0.15c-0.055,0-0.1-0.012-0.135-0.038c-0.035-0.025-0.065-0.057-0.09-0.098L711.793,307.67z
	 M716.181,310.467c-0.71,0.025-1.321,0.081-1.834,0.169c-0.513,0.088-0.935,0.206-1.267,0.356c-0.333,0.15-0.579,0.329-0.739,0.536
	c-0.16,0.208-0.24,0.444-0.24,0.709c0,0.25,0.041,0.466,0.124,0.649c0.083,0.183,0.192,0.333,0.33,0.45
	c0.137,0.118,0.296,0.204,0.476,0.259c0.18,0.055,0.367,0.083,0.562,0.083c0.29,0,0.556-0.031,0.799-0.094
	c0.242-0.062,0.467-0.15,0.675-0.263c0.207-0.112,0.401-0.246,0.581-0.401c0.18-0.155,0.357-0.323,0.532-0.503V310.467z
	 M719.945,308.412c0.115-0.305,0.246-0.576,0.394-0.814c0.147-0.237,0.317-0.439,0.51-0.604c0.192-0.165,0.407-0.291,0.645-0.379
	c0.237-0.087,0.501-0.131,0.791-0.131c0.155,0,0.307,0.014,0.458,0.041c0.15,0.028,0.282,0.076,0.397,0.146l-0.06,0.495
	c-0.025,0.08-0.073,0.12-0.142,0.12c-0.06,0-0.151-0.017-0.274-0.052c-0.123-0.035-0.284-0.052-0.484-0.052
	c-0.29,0-0.546,0.044-0.769,0.131c-0.223,0.088-0.423,0.219-0.6,0.394c-0.178,0.175-0.333,0.391-0.465,0.649
	c-0.133,0.258-0.254,0.554-0.364,0.889v4.83h-0.72v-7.462h0.383c0.085,0,0.145,0.018,0.18,0.052c0.035,0.035,0.057,0.095,0.068,0.18
	L719.945,308.412z M729.208,307.61c-0.025,0.025-0.049,0.046-0.071,0.064c-0.023,0.018-0.054,0.026-0.094,0.026
	c-0.05,0-0.118-0.034-0.203-0.101c-0.085-0.068-0.2-0.141-0.345-0.221c-0.145-0.08-0.326-0.154-0.544-0.221
	c-0.218-0.067-0.481-0.101-0.791-0.101c-0.43,0-0.811,0.076-1.144,0.229c-0.333,0.153-0.614,0.371-0.844,0.656
	c-0.23,0.285-0.404,0.63-0.521,1.035c-0.117,0.405-0.176,0.86-0.176,1.365c0,0.525,0.061,0.99,0.184,1.395
	c0.122,0.405,0.296,0.746,0.521,1.024c0.225,0.277,0.497,0.489,0.818,0.634c0.32,0.145,0.675,0.217,1.065,0.217
	c0.36,0,0.661-0.042,0.904-0.128c0.242-0.085,0.443-0.177,0.6-0.277c0.157-0.1,0.281-0.192,0.371-0.277
	c0.09-0.085,0.165-0.128,0.225-0.128s0.11,0.025,0.15,0.075l0.188,0.24c-0.115,0.15-0.26,0.29-0.435,0.42
	c-0.175,0.13-0.372,0.243-0.592,0.337c-0.22,0.095-0.459,0.169-0.716,0.221c-0.258,0.053-0.526,0.079-0.806,0.079
	c-0.475,0-0.909-0.086-1.301-0.259c-0.393-0.172-0.73-0.422-1.012-0.75c-0.283-0.327-0.503-0.729-0.66-1.204
	c-0.157-0.475-0.236-1.015-0.236-1.62c0-0.57,0.075-1.09,0.225-1.56c0.15-0.47,0.37-0.875,0.66-1.215
	c0.29-0.34,0.644-0.604,1.061-0.791c0.417-0.188,0.896-0.281,1.436-0.281c0.485,0,0.915,0.078,1.29,0.232
	c0.375,0.155,0.702,0.365,0.982,0.63L729.208,307.61z M731.975,307.872c0.345-0.42,0.739-0.755,1.181-1.005
	c0.443-0.25,0.939-0.375,1.489-0.375c0.41,0,0.771,0.065,1.084,0.195c0.312,0.13,0.571,0.318,0.776,0.562
	c0.205,0.245,0.36,0.54,0.465,0.885s0.157,0.735,0.157,1.17v4.77h-0.72v-4.77c0-0.7-0.16-1.249-0.48-1.646
	c-0.32-0.397-0.808-0.596-1.463-0.596c-0.485,0-0.939,0.124-1.361,0.371c-0.423,0.247-0.799,0.591-1.129,1.031v5.61h-0.72v-10.913
	h0.72V307.872z"/>
<text transform="matrix(1 0 0 1 480.9229 334.0698)" fill="#1A171B" font-family="'Lato-Light'" font-size="15">Case study</text>
<g>
	<defs>
		<rect id="SVGID_1_" x="337.231" y="247.016" width="127.44" height="127.44"/>
	</defs>
	<clipPath id="SVGID_2_">
		<use xlink:href="#SVGID_1_"  overflow="visible"/>
	</clipPath>
	<g transform="matrix(1 0 0 1 0 -1.525879e-05)" clip-path="url(#SVGID_2_)">
		
			<image overflow="visible" width="531" height="531" xlink:href="F641DE8A55A51F33.png"  transform="matrix(0.24 0 0 0.24 337.2309 247.0164)">
		</image>
	</g>
</g>
</svg>
